<?xml version="1.0" encoding="UTF-8" standalone="no"?>
<!-- Created with Inkscape (http://www.inkscape.org/) -->

<svg
   xmlns:dc="http://purl.org/dc/elements/1.1/"
   xmlns:cc="http://creativecommons.org/ns#"
   xmlns:rdf="http://www.w3.org/1999/02/22-rdf-syntax-ns#"
   xmlns:svg="http://www.w3.org/2000/svg"
   xmlns="http://www.w3.org/2000/svg"
   xmlns:sodipodi="http://sodipodi.sourceforge.net/DTD/sodipodi-0.dtd"
   xmlns:inkscape="http://www.inkscape.org/namespaces/inkscape"
   width="300"
   height="300"
   viewBox="0 0 79.374999 79.374999"
   version="1.1"
   id="svg32"
   inkscape:version="0.92.4 (5da689c313, 2019-01-14)"
   sodipodi:docname="bt-trx_quadrat.svg"
   inkscape:export-filename="/home/chris/owncloud_andz/projekte/bt-trx/logo/png/bt-trx_quadrat.png"
   inkscape:export-xdpi="96"
   inkscape:export-ydpi="96">
  <defs
     id="defs26" />
  <sodipodi:namedview
     id="base"
     pagecolor="#ffffff"
     bordercolor="#666666"
     borderopacity="1.0"
     inkscape:pageopacity="0.0"
     inkscape:pageshadow="2"
     inkscape:zoom="0.7"
     inkscape:cx="50.481595"
     inkscape:cy="273.01224"
     inkscape:document-units="mm"
     inkscape:current-layer="layer1"
     showgrid="false"
     inkscape:pagecheckerboard="false"
     fit-margin-top="2"
     fit-margin-left="2"
     fit-margin-right="2"
     fit-margin-bottom="2"
     inkscape:window-width="1366"
     inkscape:window-height="708"
     inkscape:window-x="0"
     inkscape:window-y="0"
     inkscape:window-maximized="1"
     units="px" />
  <metadata
     id="metadata29">
    <rdf:RDF>
      <cc:Work
         rdf:about="">
        <dc:format>image/svg+xml</dc:format>
        <dc:type
           rdf:resource="http://purl.org/dc/dcmitype/StillImage" />
        <dc:title></dc:title>
      </cc:Work>
    </rdf:RDF>
  </metadata>
  <g
     inkscape:label="Layer 1"
     inkscape:groupmode="layer"
     id="layer1"
     transform="translate(-54.129956,-58.776239)">
    <path
       style="display:inline;fill:#000000;stroke-width:0.26458338"
       d="m 66.08386,112.58323 c -1.55044,-0.69831 -2.42764,-1.47993 -3.229,-2.87715 -1.37643,-2.39991 -1.00648,-5.57273 0.87915,-7.53987 1.34049,-1.39844 2.70397,-1.97285 4.68294,-1.97285 2.06193,0 3.43045,0.60847 4.81476,2.14073 1.21575,1.34569 1.6191,2.61529 1.48749,4.68212 -0.21474,3.37255 -2.62871,5.73818 -6.00609,5.88584 -1.13635,0.0497 -2.05965,-0.0623 -2.62925,-0.31882 z m 3.75994,-3.18822 c 1.66102,-0.7882 2.23383,-2.90011 1.23215,-4.5429 -0.5752,-0.94335 -1.15277,-1.32525 -2.12983,-1.4083 -1.44163,-0.12253 -1.94057,0.0379 -2.80459,0.90194 -0.73963,0.73963 -0.89958,1.09868 -0.89958,2.01929 0,2.61816 2.29094,4.12657 4.60185,3.02997 z m 21.98878,3.09631 c -2.53024,-1.18741 -3.85887,-3.1966 -3.87158,-5.85468 -0.0178,-3.72595 2.67499,-6.44328 6.38512,-6.44328 2.10263,0 3.50409,0.64147 4.85855,2.22384 1.22423,1.43025 1.57444,2.54584 1.4437,4.59901 -0.21456,3.36957 -2.62504,5.73367 -6.00609,5.89052 -1.29281,0.06 -2.02847,-0.0488 -2.8097,-0.41541 z m 3.94038,-3.09631 c 1.66103,-0.7882 2.23383,-2.90011 1.23216,-4.5429 -0.5752,-0.94335 -1.15277,-1.32525 -2.12984,-1.4083 -1.44163,-0.12253 -1.94056,0.0379 -2.80458,0.90194 -0.73401,0.73401 -0.89958,1.10166 -0.89958,1.99751 0,2.67007 2.25492,4.16544 4.60184,3.05175 z m 15.55671,2.77562 c -1.62292,-0.98946 -1.63772,-1.11738 -1.63772,-14.150447 0,-11.289974 0.0227,-11.837381 0.53176,-12.835255 0.91531,-1.794131 1.17986,-1.846991 9.24468,-1.846991 h 7.15689 v -2.401585 c 0,-2.301618 0.0322,-2.433788 0.7734,-3.174982 0.63323,-0.633227 0.99656,-0.773397 2.00473,-0.773397 1.00816,0 1.3715,0.14017 2.00473,0.773397 l 0.77339,0.773394 v 15.639173 c 0,17.249883 0.0243,16.983423 -1.63772,17.996693 -0.83173,0.50709 -1.31533,0.53397 -9.60707,0.53397 -8.29173,0 -8.77534,-0.0269 -9.60707,-0.53397 z m 18.49641,-1.81108 c 0.48922,-0.60452 0.50514,-1.18443 0.43934,-16.007246 l -0.0683,-15.379963 h -0.79375 -0.79375 l -0.076,2.762825 c -0.0418,1.519551 -0.20518,2.918535 -0.36312,3.108842 -0.22455,0.27056 -1.97878,0.346 -8.04497,0.346 -7.71676,0 -7.75999,0.003 -8.16969,0.588034 -0.35758,0.51051 -0.41188,2.117358 -0.41188,12.188161 0,7.701987 0.0947,11.777157 0.28188,12.126867 0.15504,0.28968 0.54199,0.63406 0.8599,0.76527 0.31791,0.13122 4.19031,0.2138 8.60534,0.18352 l 8.02732,-0.0551 z m -16.06827,-0.50312 c -2.01812,-1.63474 -1.02118,-4.67845 1.53238,-4.67845 0.88151,0 1.21111,0.15737 1.86697,0.89141 0.69093,0.77329 0.77717,1.03541 0.65075,1.97795 -0.26515,1.97683 -2.57132,3.00694 -4.0501,1.80909 z m 2.19633,-1.80057 c 0.0881,-0.22957 -0.0347,-0.61227 -0.27289,-0.85045 -0.40101,-0.40102 -0.46509,-0.40102 -0.8661,0 -0.54094,0.54094 -0.29265,1.26784 0.43305,1.26784 0.30018,0 0.61785,-0.18783 0.70594,-0.41739 z m 3.24246,1.49607 c -1.39172,-1.39171 -0.87746,-3.65175 0.96964,-4.26135 1.29159,-0.42627 2.77158,0.31149 3.18388,1.58713 0.84589,2.61716 -2.23011,4.59764 -4.15352,2.67422 z m 2.51015,-1.50909 c 0.18895,-0.4924 -0.26664,-1.15709 -0.7931,-1.15709 -0.42732,0 -0.87836,0.79518 -0.71286,1.25677 0.17243,0.48089 1.31212,0.40546 1.50596,-0.0997 z m 3.42815,1.81359 c -1.35097,-1.09432 -1.50163,-2.57489 -0.38878,-3.82039 0.63446,-0.71008 0.95853,-0.85806 1.87916,-0.85806 0.92063,0 1.24471,0.14798 1.87916,0.85806 0.42167,0.47193 0.76668,1.15975 0.76668,1.52848 0,0.87711 -0.66657,2.14496 -1.30826,2.48839 -0.77369,0.41406 -2.19625,0.31522 -2.82796,-0.19648 z m 2.19633,-1.80057 c 0.21231,-0.55327 -0.49381,-1.23491 -1.05585,-1.01924 -0.44232,0.16974 -0.60263,0.92507 -0.26746,1.26024 0.32973,0.32973 1.1625,0.17806 1.32331,-0.241 z m -9.3222,-6.1682 c -1.56074,-0.70887 -2.95867,-2.037606 -3.76334,-3.577027 -0.57993,-1.109464 -0.70395,-1.696341 -0.70395,-3.331092 0,-1.634751 0.12402,-2.221638 0.70395,-3.331092 1.39006,-2.659355 3.70017,-4.062036 6.70525,-4.071396 2.32681,-0.007 4.12126,0.806127 5.67653,2.573005 3.30128,3.750429 1.85561,9.721436 -2.84116,11.734692 -1.55328,0.66581 -4.31472,0.6672 -5.77728,0.003 z m 5.12966,-1.606 c 0.31137,-0.18166 -0.3394,-0.26138 -2.1799,-0.26702 -1.44308,-0.004 -2.55045,0.0653 -2.46082,0.15491 0.59967,0.59968 3.67759,0.67403 4.64072,0.11211 z m 2.78853,-2.524014 c 0.13215,-0.34439 -0.52783,-0.396867 -4.99048,-0.396867 -4.46265,0 -5.12262,0.0525 -4.99047,0.396867 0.12769,0.332757 0.93395,0.396877 4.99047,0.396877 4.05653,0 4.86278,-0.0641 4.99048,-0.396877 z m 0.69806,-2.778105 c 0,-0.512757 -0.17639,-0.529167 -5.68854,-0.529167 -5.51215,0 -5.68854,0.0164 -5.68854,0.529167 0,0.512757 0.17639,0.529157 5.68854,0.529157 5.51215,0 5.68854,-0.0164 5.68854,-0.529157 z m -0.69806,-2.778115 c -0.1277,-0.332747 -0.93395,-0.396867 -4.99048,-0.396867 -4.05652,0 -4.86278,0.0641 -4.99047,0.396867 -0.13215,0.34439 0.52782,0.39688 4.99047,0.39688 4.46265,0 5.12263,-0.0525 4.99048,-0.39688 z m -2.87381,-2.581755 c -0.66788,-0.399747 -3.54134,-0.391257 -4.23778,0.0125 -0.42074,0.24392 -5.3e-4,0.30421 2.12111,0.30421 2.17258,0 2.55118,-0.0566 2.11667,-0.31673 z M 57.37581,106.2289 c -1.63265,-0.70976 -1.92134,-1.61828 -1.92245,-6.05003 -0.001,-5.737416 0.52957,-6.52224 4.413,-6.52224 h 2.0834 l 1.84453,-3.729489 c 1.99155,-4.026739 3.02464,-5.27304 4.80465,-5.796257 0.67812,-0.19932 3.69631,-0.26944 9.21072,-0.21398 10.64069,0.10702 9.95219,-0.20132 13.97285,6.257484 1.59308,2.559105 2.51459,3.788979 2.91042,3.884289 0.31858,0.0767 2.71149,0.603797 5.31758,1.171324 6.48635,1.412491 7.07516,1.892398 7.25086,5.909749 0.17072,3.90334 -0.75616,5.32145 -3.49027,5.34001 l -1.34172,0.009 -0.18131,-1.24327 c -0.40001,-2.74297 -2.496807,-5.291726 -5.17891,-6.29522 -4.71952,-1.765791 -10.05414,1.46195 -10.81631,6.54448 l -0.1689,1.12631 h -4.72742 -4.72741 l -0.14686,-0.72761 c -0.52371,-2.59481 -1.01437,-3.63306 -2.34651,-4.96518 -2.3785,-2.37848 -5.47303,-3.088764 -8.50868,-1.95299 -2.68326,1.003934 -4.62453,3.29218 -5.17751,6.10293 l -0.30354,1.54285 -0.95777,-0.0103 c -0.52676,-0.006 -1.34237,-0.17757 -1.81244,-0.38192 z M 78.20653,90.349358 v -3.307272 h -2.50109 c -1.3756,0 -2.80409,0.13805 -3.17442,0.30679 -0.45949,0.209347 -1.1357,1.180351 -2.12912,3.057312 -0.80068,1.512791 -1.45578,2.863012 -1.45578,3.000482 0,0.14737 1.9004,0.24996 4.63021,0.24996 h 4.6302 z m 11.65868,2.844252 c -1.5692,-2.729422 -3.22936,-5.05415 -3.96184,-5.547767 -0.71631,-0.482717 -1.25939,-0.603757 -2.70888,-0.603757 h -1.81296 v 3.307272 3.307272 h 4.37494 c 4.09162,0 4.35769,-0.03 4.10874,-0.46302 z m 6.39859,-9.682413 c -4.10824,-4.183666 -4.56737,-4.881003 -4.55623,-6.920092 0.0152,-2.78234 3.04196,-5.27164 5.78953,-4.76148 1.02906,0.19108 2.93443,1.15984 2.93443,1.49198 0,0.11271 0.61138,-0.17512 1.35861,-0.63963 4.0275,-2.50362 8.8456,0.87679 7.63859,5.359272 -0.24101,0.895024 -1.0862,1.935728 -4.3177,5.31646 -2.20992,2.311978 -4.20756,4.205826 -4.43921,4.208566 -0.23164,0.003 -2.21525,-1.822048 -4.40802,-4.055076 z"
       id="path966"
       inkscape:connector-curvature="0"
       sodipodi:nodetypes="cccscscccsccscccsccccccccsccscscsssccscsccccccscscsccccccsscccccsccccccscccccscsccccscccscccccccccccscscssssscscscccsccccscscscccccccsscccsscsccccccsccsscccsscccscsccsccscs" />
    <text
       xml:space="preserve"
       style="font-style:normal;font-variant:normal;font-weight:bold;font-stretch:normal;font-size:10.58333302px;line-height:125%;font-family:'Nimbus Mono L';-inkscape-font-specification:'Nimbus Mono L Bold';font-variant-ligatures:normal;font-variant-caps:normal;font-variant-numeric:normal;font-feature-settings:normal;text-align:start;letter-spacing:0px;word-spacing:0px;writing-mode:lr-tb;text-anchor:start;display:inline;fill:#000000;fill-opacity:1;stroke:none;stroke-width:0.26458332px;stroke-linecap:butt;stroke-linejoin:miter;stroke-opacity:1"
       x="60.670677"
       y="125.05181"
       id="text970-6-9"><tspan
         sodipodi:role="line"
         id="tspan825-0-1"
         style="font-style:normal;font-variant:normal;font-weight:bold;font-stretch:normal;font-size:14.11111069px;font-family:Lato;-inkscape-font-specification:'Lato Bold';font-variant-ligatures:normal;font-variant-caps:normal;font-variant-numeric:normal;font-feature-settings:normal;text-align:start;writing-mode:lr-tb;text-anchor:start;stroke-width:0.26458332px"
         x="60.670677"
         y="125.05181">bt-trx.com</tspan></text>
  </g>
</svg>
